# xmcd
#
# Track frame offsets:
#	182
#	11465
#	24585
#	37377
#	45910
#	60895
#	73420
#	81770
#	94132
#	104602
#	117717
#	130510
#
# Disc length: 1900 seconds
#
# Revision: 0
# Processed by: cddbd v1.5.2PL0 Copyright (c) Steve Scherf et al.
# Submitted via: dBpowerAMP V4.0
#
DISCID=9f076a0c
DTITLE=Daniel Darc and Bill Pritchard - Parce Que
DYEAR=1998
DGENRE=Chanson
TTITLE0=Aimer a Nouveau
TTITLE1=Lydia
TTITLE2=Seras-tu Encore La?
TTITLE3=Pigalle on a Tuesday is Charming
TTITLE4=We Were Lovers
TTITLE5=Rien de Toi
TTITLE6=Pauvre Petite
TTITLE7=Je Reve Encore de Toi
TTITLE8=Catherine
TTITLE9=D'autres Corps
TTITLE10=Seras-tu Encore la?
TTITLE11=Parce que
EXTD=
EXTT0=
EXTT1=
EXTT2=
EXTT3=
EXTT4=
EXTT5=
EXTT6=
EXTT7=
EXTT8=
EXTT9=
EXTT10=
EXTT11=
PLAYORDER=
